<svg xmlns="http://www.w3.org/2000/svg" width="285" height="81.392" viewBox="460 483 285 81.392"><g data-name="App Store Button"><path d="M730.265 564.392h-255.53c-8.137 0-14.735-5.312-14.735-11.862v-57.667c0-6.55 6.598-11.863 14.735-11.863h255.53c8.137 0 14.735 5.312 14.735 11.863v57.667c0 6.55-6.598 11.862-14.735 11.862Z" fill-rule="evenodd" data-name="Path 34"/><g data-name="Group 9"><path d="M552.453 506.529c-.566.283-1.698.566-3.148.566-3.36 0-5.888-2.122-5.888-6.03 0-3.731 2.529-6.26 6.224-6.26 1.486 0 2.423.319 2.83.53l-.372 1.256c-.583-.282-1.414-.495-2.405-.495-2.793 0-4.65 1.786-4.65 4.916 0 2.917 1.68 4.792 4.58 4.792.937 0 1.892-.194 2.51-.495l.319 1.22Z" fill="#fff" fill-rule="evenodd" data-name="Path 35"/><path d="M561.878 502.57c0 3.164-2.193 4.543-4.262 4.543-2.316 0-4.102-1.697-4.102-4.402 0-2.865 1.874-4.545 4.244-4.545 2.457 0 4.12 1.786 4.12 4.403Zm-6.79.087c0 1.875 1.078 3.29 2.599 3.29 1.485 0 2.6-1.398 2.6-3.325 0-1.45-.726-3.289-2.565-3.289s-2.634 1.698-2.634 3.324Z" fill="#fff" fill-rule="evenodd" data-name="Path 36"/><path d="M563.84 500.676c0-.884-.018-1.609-.07-2.316h1.361l.07 1.38h.054c.477-.814 1.273-1.575 2.687-1.575 1.167 0 2.052.708 2.423 1.716h.035c.266-.478.601-.849.955-1.115.513-.388 1.079-.6 1.892-.6 1.132 0 2.812.742 2.812 3.713v5.04h-1.521v-4.846c0-1.644-.601-2.635-1.856-2.635-.885 0-1.574.655-1.84 1.415a2.56 2.56 0 0 0-.124.778v5.287h-1.52v-5.128c0-1.361-.601-2.352-1.786-2.352-.973 0-1.68.778-1.927 1.556-.089.23-.124.496-.124.76v5.164h-1.52v-6.242Z" fill="#fff" fill-rule="evenodd" data-name="Path 37"/><path d="M580.32 495.955c.018.53-.37.955-.99.955-.548 0-.937-.425-.937-.955 0-.549.406-.973.972-.973.584 0 .955.424.955.973Zm-1.733 10.963v-8.559h1.557v8.56h-1.557Z" fill="#fff" fill-rule="evenodd" data-name="Path 38"/><path d="M582.725 500.677c0-.884-.018-1.609-.07-2.316h1.379l.088 1.414h.035c.425-.813 1.415-1.61 2.83-1.61 1.184 0 3.023.709 3.023 3.644v5.11h-1.556v-4.933c0-1.38-.513-2.53-1.98-2.53-1.026 0-1.822.726-2.087 1.593-.07.194-.106.46-.106.724v5.146h-1.556v-6.242Z" fill="#fff" fill-rule="evenodd" data-name="Path 39"/><path d="M599.912 498.36a37.632 37.632 0 0 0-.07 2.352v4.968c0 1.963-.39 3.166-1.22 3.908-.832.779-2.034 1.026-3.113 1.026-1.025 0-2.157-.247-2.847-.707l.39-1.185c.565.354 1.45.672 2.51.672 1.592 0 2.759-.83 2.759-2.988v-.955h-.036c-.477.795-1.397 1.432-2.722 1.432-2.123 0-3.643-1.804-3.643-4.173 0-2.9 1.892-4.545 3.855-4.545 1.485 0 2.298.779 2.669 1.486h.036l.07-1.29h1.362Zm-1.609 3.378c0-.266-.018-.496-.088-.708-.284-.902-1.043-1.644-2.175-1.644-1.485 0-2.547 1.255-2.547 3.235 0 1.68.849 3.077 2.529 3.077.955 0 1.821-.6 2.157-1.591.088-.266.124-.566.124-.831v-1.538Z" fill="#fff" fill-rule="evenodd" data-name="Path 40"/><path d="M606.013 505.044c.69.424 1.697.777 2.758.777 1.574 0 2.493-.83 2.493-2.033 0-1.114-.636-1.75-2.245-2.37-1.946-.689-3.148-1.697-3.148-3.377 0-1.857 1.538-3.235 3.855-3.235 1.22 0 2.105.282 2.635.583l-.425 1.255a4.753 4.753 0 0 0-2.263-.565c-1.627 0-2.246.972-2.246 1.786 0 1.113.725 1.662 2.37 2.298 2.015.778 3.041 1.75 3.041 3.501 0 1.84-1.36 3.43-4.173 3.43-1.149 0-2.405-.335-3.041-.76l.389-1.29Z" fill="#fff" fill-rule="evenodd" data-name="Path 41"/><path d="M622.74 502.57c0 3.164-2.192 4.543-4.261 4.543-2.316 0-4.103-1.697-4.103-4.402 0-2.865 1.875-4.545 4.244-4.545 2.458 0 4.12 1.786 4.12 4.403Zm-6.79.087c0 1.875 1.08 3.29 2.6 3.29 1.485 0 2.599-1.398 2.599-3.325 0-1.45-.725-3.289-2.564-3.289-1.84 0-2.635 1.698-2.635 3.324Z" fill="#fff" fill-rule="evenodd" data-name="Path 42"/><path d="M632.448 502.57c0 3.164-2.193 4.543-4.261 4.543-2.317 0-4.102-1.697-4.102-4.402 0-2.865 1.873-4.545 4.243-4.545 2.458 0 4.12 1.786 4.12 4.403Zm-6.79.087c0 1.875 1.079 3.29 2.6 3.29 1.485 0 2.598-1.398 2.598-3.325 0-1.45-.724-3.289-2.564-3.289-1.838 0-2.634 1.698-2.634 3.324Z" fill="#fff" fill-rule="evenodd" data-name="Path 43"/><path d="M634.41 500.677c0-.884-.017-1.609-.07-2.316h1.38l.088 1.414h.036c.424-.813 1.414-1.61 2.829-1.61 1.184 0 3.023.709 3.023 3.644v5.11h-1.556v-4.933c0-1.38-.513-2.53-1.98-2.53-1.026 0-1.821.726-2.087 1.593-.07.194-.105.46-.105.724v5.146h-1.557v-6.242Z" fill="#fff" fill-rule="evenodd" data-name="Path 44"/></g><g data-name="Group 10"><path d="m549.54 538.393-2.557 7.748h-3.289l8.367-24.629h3.837l8.405 24.629h-3.398l-2.632-7.748h-8.732Zm8.076-2.484-2.41-7.088c-.549-1.61-.914-3.071-1.28-4.495h-.074a73.178 73.178 0 0 1-1.243 4.46l-2.411 7.125h7.418Z" fill="#fff" fill-rule="evenodd" data-name="Path 45"/><path d="M567.704 534.225c0-2.265-.074-4.093-.148-5.773h2.886l.147 3.033h.074c1.314-2.157 3.398-3.436 6.286-3.436 4.276 0 7.491 3.618 7.491 8.988 0 6.357-3.872 9.501-8.04 9.501-2.34 0-4.384-1.022-5.443-2.776h-.073v9.61h-3.18v-19.147Zm3.18 4.716c0 .474.073.913.147 1.314.583 2.228 2.523 3.763 4.825 3.763 3.398 0 5.372-2.776 5.372-6.834 0-3.545-1.862-6.578-5.26-6.578-2.193 0-4.238 1.572-4.86 3.985-.11.4-.218.878-.218 1.314v3.036Z" fill="#fff" fill-rule="evenodd" data-name="Path 46"/><path d="M588.496 534.225c0-2.265-.074-4.093-.148-5.773h2.886l.147 3.033h.074c1.314-2.157 3.398-3.436 6.286-3.436 4.276 0 7.491 3.618 7.491 8.988 0 6.357-3.872 9.501-8.04 9.501-2.34 0-4.385-1.022-5.443-2.776h-.074v9.61h-3.18v-19.147Zm3.18 4.716c0 .474.073.913.147 1.314.583 2.228 2.523 3.763 4.824 3.763 3.398 0 5.373-2.776 5.373-6.834 0-3.545-1.862-6.578-5.26-6.578-2.193 0-4.239 1.572-4.86 3.985-.11.4-.219.878-.219 1.314v3.036Z" fill="#fff" fill-rule="evenodd" data-name="Path 47"/><path d="M616.708 542.265c1.426.879 3.507 1.61 5.7 1.61 3.253 0 5.151-1.719 5.151-4.203 0-2.302-1.315-3.62-4.642-4.898-4.02-1.426-6.504-3.507-6.504-6.979 0-3.837 3.18-6.687 7.967-6.687 2.522 0 4.349.584 5.445 1.206l-.878 2.593a9.805 9.805 0 0 0-4.677-1.17c-3.363 0-4.642 2.01-4.642 3.69 0 2.302 1.498 3.436 4.895 4.75 4.168 1.61 6.286 3.62 6.286 7.236 0 3.798-2.814 7.088-8.623 7.088-2.375 0-4.968-.696-6.286-1.571l.808-2.665Z" fill="#fff" fill-rule="evenodd" data-name="Path 48"/><path d="M638.817 523.375v5.08h4.603v2.45h-4.603v9.536c0 2.193.622 3.437 2.41 3.437.84 0 1.463-.11 1.864-.219l.147 2.41c-.622.258-1.61.44-2.85.44-1.497 0-2.705-.474-3.471-1.352-.914-.95-1.244-2.523-1.244-4.604v-9.645h-2.741v-2.45h2.74v-4.237l3.145-.846Z" fill="#fff" fill-rule="evenodd" data-name="Path 49"/><path d="M662.824 537.15c0 6.539-4.533 9.391-8.806 9.391-4.786 0-8.479-3.507-8.479-9.1 0-5.921 3.872-9.392 8.77-9.392 5.081.002 8.515 3.692 8.515 9.1Zm-14.031.182c0 3.872 2.228 6.796 5.372 6.796 3.071 0 5.373-2.889 5.373-6.87 0-2.998-1.497-6.796-5.3-6.796-3.801 0-5.445 3.507-5.445 6.87Z" fill="#fff" fill-rule="evenodd" data-name="Path 50"/><path d="M666.881 533.97c0-2.084-.035-3.874-.147-5.518h2.814l.11 3.472h.147c.804-2.376 2.74-3.872 4.898-3.872.365 0 .621.035.914.109v3.032a4.793 4.793 0 0 0-1.097-.109c-2.266 0-3.872 1.718-4.311 4.13-.074.439-.148.948-.148 1.496v9.428h-3.18V533.97Z" fill="#fff" fill-rule="evenodd" data-name="Path 51"/><path d="M680.255 537.88c.074 4.348 2.85 6.14 6.065 6.14 2.302 0 3.69-.402 4.899-.914l.548 2.302c-1.132.512-3.071 1.095-5.883 1.095-5.443 0-8.696-3.58-8.696-8.915 0-5.334 3.141-9.536 8.296-9.536 5.773 0 7.308 5.08 7.308 8.331 0 .657-.074 1.17-.109 1.497h-12.428Zm9.431-2.301c.036-2.046-.84-5.226-4.46-5.226-3.253 0-4.676 2.997-4.932 5.226h9.392Z" fill="#fff" fill-rule="evenodd" data-name="Path 52"/></g><g data-name="Group 11"><path d="M529.669 538.367c-.097-.047-.2-.092-.3-.145-.531-.291-1.08-.557-1.586-.883-2.243-1.439-3.996-3.322-5.149-5.739-.725-1.523-1.12-3.135-1.258-4.818-.248-3.003.38-5.794 1.977-8.355 1.109-1.777 2.544-3.241 4.259-4.435.133-.095.268-.186.46-.316-.127-.182-.221-.332-.327-.474-1.984-2.664-4.616-4.362-7.802-5.234-1.382-.38-2.796-.519-4.223-.57-.18-.005-.359.004-.539.013-1.15.06-2.272.277-3.377.598-1.29.374-2.532.887-3.784 1.362a52.09 52.09 0 0 1-2.175.763c-.802.265-1.61.239-2.42.023-.857-.226-1.677-.554-2.499-.878-1.064-.421-2.128-.849-3.23-1.17-1.138-.33-2.293-.548-3.483-.515-2.072.055-4.053.512-5.927 1.411-3.28 1.57-5.703 4.017-7.356 7.241-1.361 2.652-1.998 5.496-2.166 8.453a31.499 31.499 0 0 0 .504 7.532 41.125 41.125 0 0 0 3.86 11.296c1.21 2.358 2.715 4.518 4.321 6.61.64.832 1.326 1.624 2.08 2.355.829.802 1.728 1.51 2.771 2.013a6.217 6.217 0 0 0 3.486.595 10.389 10.389 0 0 0 2.797-.716c.622-.254 1.238-.515 1.86-.772 1.137-.471 2.307-.828 3.54-.966 1.92-.213 3.792-.039 5.599.669.716.28 1.42.59 2.13.887.894.374 1.81.678 2.776.783.932.104 1.86.104 2.783-.115 1.255-.294 2.34-.913 3.327-1.72.79-.646 1.494-1.38 2.13-2.173 1.651-2.06 3.16-4.22 4.427-6.542a34.317 34.317 0 0 0 2.381-5.438c.062-.19.174-.382.133-.63Z" fill="#efefef" fill-rule="evenodd" data-name="Path 53"/><path d="M504.15 506.668c.171.123.34.091.498.094a8.917 8.917 0 0 0 2.523-.336c2.051-.569 3.825-1.63 5.317-3.13 2.567-2.584 4.031-5.69 4.267-9.348a6.773 6.773 0 0 0-.085-1.697c-.145 0-.242-.01-.336.003-.602.068-1.203.153-1.786.327-4.616 1.362-7.86 4.243-9.646 8.73-.64 1.602-.943 3.267-.802 4.997.012.127.036.25.05.36Z" fill="#efefef" fill-rule="evenodd" data-name="Path 54"/></g></g></svg>