<svg xmlns="http://www.w3.org/2000/svg" width="15.007" height="28.031" viewBox="218.11 340.57 15.007 28.031"><path d="M222.695 368.601v-12.483c-1.361 0-2.658-.024-3.952.012-.5.014-.644-.13-.63-.63a69.635 69.635 0 0 0-.002-3.895c-.015-.518.16-.633.643-.618 1.11.034 2.22.011 3.331.011h.615c0-1.263-.073-2.469.022-3.661.086-1.076.214-2.188.575-3.194.829-2.312 2.833-3.616 5.283-3.572 1.502.027 3.002.129 4.537.198v4.242c-.777 0-1.53-.057-2.27.019a5.289 5.289 0 0 0-1.659.453c-.59.274-.973.825-.997 1.48-.048 1.313-.014 2.628-.014 4.022h4.808c-.137.881-.258 1.675-.383 2.468-.115.725-.26 1.446-.34 2.174-.043.389-.196.504-.572.498-1.146-.02-2.292-.007-3.5-.007v12.483h-5.495Z" fill-rule="evenodd" data-name="Path 61"/></svg>