<svg xmlns="http://www.w3.org/2000/svg" width="28.44" height="28.43" viewBox="267.56 340.57 28.44 28.43"><g data-name="Group 25"><path d="M288.255 340.6c-4.316-.04-8.633-.037-12.948-.002-4.423.037-7.742 3.44-7.745 7.87-.002 2.105 0 4.21 0 6.316 0 2.169-.006 4.337 0 6.506.013 4.291 3.416 7.698 7.702 7.705 4.338.007 8.675.007 13.012 0 4.313-.009 7.723-3.44 7.724-7.758v-12.76c0-4.418-3.327-7.836-7.745-7.878m5.24 20.714c-.037 3.009-2.354 5.178-5.38 5.18-2.126.002-4.252 0-6.377 0-2.126 0-4.252.003-6.377 0-2.982-.005-5.303-2.265-5.322-5.254-.03-4.293-.028-8.587-.001-12.88.018-2.943 2.329-5.244 5.27-5.26 4.293-.023 8.587-.02 12.88 0 2.97.013 5.274 2.238 5.309 5.208.05 4.335.052 8.671-.002 13.006" fill-rule="evenodd" data-name="Path 58"/><path d="M281.745 347.05c-4.202.003-7.696 3.524-7.693 7.751.004 4.284 3.482 7.78 7.734 7.773 4.274-.006 7.795-3.541 7.784-7.814-.011-4.204-3.574-7.715-7.825-7.71m-.012 12.873c-2.84-.017-5.06-2.311-5.04-5.208.019-2.742 2.353-4.987 5.155-4.96 2.777.029 5.06 2.347 5.027 5.106a5.108 5.108 0 0 1-5.142 5.062" fill-rule="evenodd" data-name="Path 59"/><path d="M289.41 345.556c-.933-.012-1.662.735-1.648 1.687.013.924.737 1.635 1.648 1.62.9-.014 1.64-.761 1.64-1.652a1.681 1.681 0 0 0-1.64-1.655" fill-rule="evenodd" data-name="Path 60"/></g></svg>