<svg xmlns="http://www.w3.org/2000/svg" width="27.942" height="28.031" viewBox="156.114 340.57 27.942 28.031"><g data-name="Group 26"><path d="M184 355.76c-.064-2.597-1.506-4.397-3.86-5.477-1.224-.562-2.52-.45-3.808-.466-2.018-.025-3.658.766-4.977 2.268-.08.092-.178.17-.347.331v-2.332h-5.47v18.506h5.482v-.695c0-3.1-.015-6.202.004-9.303.017-2.846 3.306-4.715 5.737-3.257 1.326.795 1.774 2.07 1.772 3.552-.005 3.022-.002 6.043 0 9.065 0 .21.017.42.027.65h5.42c.02-.13.049-.224.049-.32.001-4.174.076-8.35-.028-12.522" fill-rule="evenodd" data-name="Path 55"/><path d="M156.71 350.07h5.519v18.524h-5.52V350.07z" fill-rule="evenodd" data-name="Rectangle 18"/><path d="M159.436 340.57c-1.813.002-3.307 1.522-3.321 3.377-.014 1.841 1.482 3.37 3.307 3.381a3.363 3.363 0 0 0 3.38-3.367c.004-1.86-1.516-3.393-3.366-3.39" fill-rule="evenodd" data-name="Path 56"/></g></svg>