<svg id="Layer_1" data-name="Layer 1" xmlns="http://www.w3.org/2000/svg" xmlns:xlink="http://www.w3.org/1999/xlink" viewBox="0 0 4286.93 713.88"><defs><style>.cls-1{fill:none;}.cls-2{clip-path:url(#clip-path);}.cls-3{clip-path:url(#clip-path-2);}.cls-4{fill:#faf9f8;}.cls-5{fill:#3a321b;}.cls-6{fill:#916c14;}.cls-7{fill:#d5ad36;}.cls-8{opacity:0.15;}.cls-9{clip-path:url(#clip-path-3);}.cls-10{clip-path:url(#clip-path-4);}.cls-11{fill:#fff;}</style><clipPath id="clip-path" transform="translate(0 -67.55)"><rect class="cls-1" width="4291.38" height="848.98"/></clipPath><clipPath id="clip-path-2" transform="translate(0 -67.55)"><rect class="cls-1" width="4291.38" height="848.98"/></clipPath><clipPath id="clip-path-3" transform="translate(0 -67.55)"><rect class="cls-1" y="67.55" width="711.12" height="419.76"/></clipPath><clipPath id="clip-path-4" transform="translate(0 -67.55)"><rect class="cls-1" y="67.55" width="711.12" height="419.76"/></clipPath></defs><title>Netikash_Live_Logo</title><g class="cls-2"><g class="cls-3"><path class="cls-4" d="M893,661.12H802.84V383.6q0-58.87,41.75-100.92t100.62-42.05q58.86,0,100.92,42.05t42,100.92V661.12H998.07V383.6q0-21.63-15.62-37.25t-37.24-15.62q-21.63,0-36.94,15.62A51.34,51.34,0,0,0,893,383.6Z" transform="translate(0 -67.55)"/><path class="cls-4" d="M1403.55,240.63v90.1h-158a35.45,35.45,0,0,0-26.43,11.12,37,37,0,0,0-10.81,26.73v37.24h195.23v90.11H1208.32v37.84A36.93,36.93,0,0,0,1245.56,571h158l-.6,90.1H1208.32q-37.26,0-64-26.43T1118.21,571V330.73q-.59-37.85,26.13-64t64-26.13Z" transform="translate(0 -67.55)"/><polygon class="cls-4" points="1433.59 173.08 1718.92 173.08 1718.92 263.18 1621.61 263.18 1621.61 593.57 1531.5 593.57 1531.5 263.18 1433.59 263.18 1433.59 173.08"/><rect class="cls-4" x="1748.96" y="173.08" width="90.1" height="420.49"/><path class="cls-4" d="M1869.09,240.63h90.11V405.82h67.28A37,37,0,0,0,2053.21,395a35.48,35.48,0,0,0,11.11-26.43V240.63h90.11v128q0,52.26-30,79.89,30,33,30,85.3V661.12h-90.11V533.77a37.93,37.93,0,0,0-37.84-37.84H1959.2V661.12h-90.11Z" transform="translate(0 -67.55)"/><path class="cls-4" d="M2379.69,571H2274.57v90.1h-90.11V383.6q0-58.87,41.75-100.92t100.62-42.05q58.86,0,100.92,42.05T2469.8,383.6V661.12h-90.11Zm-105.12-90.11h105.12V383.6q0-21.63-15.62-37.25t-37.24-15.62q-21.63,0-36.94,15.62a51.34,51.34,0,0,0-15.32,37.25Z" transform="translate(0 -67.55)"/><path class="cls-4" d="M2785.17,240.63v90.1H2627.78a37.95,37.95,0,0,0-37.84,37.85A35.45,35.45,0,0,0,2601.05,395a36.94,36.94,0,0,0,26.73,10.81l29.44.6q53.46,0,90.7,37.55t37.25,89.8q0,52.26-37.55,90.11t-90.4,37.84l-157.39-.6V571h157.39A37,37,0,0,0,2684,560.2a37,37,0,0,0,0-52.86,37,37,0,0,0-26.73-10.81l-29.44-.6q-53.47,0-90.7-37.55t-37.25-89.8q0-52.26,37.55-90.11t90.4-37.84Z" transform="translate(0 -67.55)"/><polygon class="cls-4" points="2815.21 173.08 2905.31 173.08 2905.31 338.27 3010.44 338.27 3010.44 173.08 3100.54 173.08 3100.54 593.57 3010.44 593.57 3010.44 428.38 2905.31 428.38 2905.31 593.57 2815.21 593.57 2815.21 173.08"/><path class="cls-4" d="M3250.71,240.63h90.11V541a28.52,28.52,0,0,0,9,21.33,29.32,29.32,0,0,0,21,8.71H3491v90.1H3340.82q-36.65,0-63.38-26.43T3250.71,571Z" transform="translate(0 -67.55)"/><rect class="cls-4" x="3521.03" y="173.08" width="90.1" height="420.49"/><polygon class="cls-4" points="3806.37 428.38 3881.46 173.08 3971.56 173.08 3851.42 593.57 3761.32 593.57 3641.18 173.08 3731.28 173.08 3806.37 428.38"/><path class="cls-4" d="M4286.93,240.63v90.1h-158a35.45,35.45,0,0,0-26.43,11.12,37,37,0,0,0-10.81,26.73v37.24h195.23v90.11H4091.7v37.84A36.93,36.93,0,0,0,4128.94,571h158l-.6,90.1H4091.7q-37.26,0-64-26.43T4001.59,571V330.73q-.59-37.85,26.13-64t64-26.13Z" transform="translate(0 -67.55)"/><path class="cls-5" d="M610.62,70.31H102.28A101.39,101.39,0,0,0,.89,171.71V680.05A101.39,101.39,0,0,0,102.28,781.43H610.62A101.39,101.39,0,0,0,712,680.05V171.71A101.39,101.39,0,0,0,610.62,70.31" transform="translate(0 -67.55)"/><path class="cls-6" d="M161.1,276.13a50.35,50.35,0,0,1,50.3-50.3h99.92a50.35,50.35,0,0,1,50.3,50.3v215H410v-215a98.75,98.75,0,0,0-98.64-98.64H211.4a98.75,98.75,0,0,0-98.64,98.64v215H161.1Z" transform="translate(0 -67.55)"/><path class="cls-6" d="M337.74,626a34.06,34.06,0,1,1-34.06-34.06A34.06,34.06,0,0,1,337.74,626" transform="translate(0 -67.55)"/><path class="cls-7" d="M151.06,276.13a50.35,50.35,0,0,1,50.3-50.3h99.92a50.35,50.35,0,0,1,50.3,50.3v215h48.34v-215a98.75,98.75,0,0,0-98.64-98.64H201.36a98.75,98.75,0,0,0-98.64,98.64v215h48.34Z" transform="translate(0 -67.55)"/><path class="cls-6" d="M329.56,525.58a50.36,50.36,0,0,1-50.29-50.3V444.19a68.74,68.74,0,1,0-48.34-4.74v35.83a98.74,98.74,0,0,0,98.63,98.64l80.4-.07V525.58Z" transform="translate(0 -67.55)"/><path class="cls-5" d="M304.82,377.83a53.5,53.5,0,1,1-53.5-53.49,53.5,53.5,0,0,1,53.5,53.49" transform="translate(0 -67.55)"/><path class="cls-7" d="M319.52,525.58a50.5,50.5,0,0,1-25.1-6.75l-.12-.06c-.58-.34-1.15-.69-1.72-1l-.18-.12c-.55-.35-1.1-.72-1.64-1.1a.91.91,0,0,1-.16-.11c-.55-.39-1.1-.79-1.63-1.2l0,0a49.77,49.77,0,0,1-6.26-5.7l-.1-.1c-.38-.42-.75-.84-1.12-1.27-.13-.15-.27-.3-.39-.45-.33-.39-.65-.79-1-1.18l-.48-.61c-.29-.38-.58-.76-.86-1.15-.17-.23-.34-.47-.5-.71s-.52-.75-.77-1.13l-.51-.8q-.36-.56-.69-1.11c-.18-.29-.34-.59-.51-.88s-.42-.73-.62-1.11-.34-.65-.5-1-.37-.7-.54-1.06c-.3-.64-.6-1.29-.88-1.94-.13-.3-.24-.61-.37-.92s-.36-.88-.52-1.33-.23-.63-.34-.95l-.43-1.27-.3-1c-.12-.43-.25-.85-.36-1.29s-.17-.66-.26-1l-.3-1.32-.21-1c-.09-.45-.17-.9-.24-1.36s-.11-.66-.16-1-.13-1-.19-1.44c0-.32-.07-.63-.1-.95-.06-.54-.09-1.08-.13-1.62,0-.27,0-.54,0-.81,0-.81-.07-1.63-.07-2.45V444.19a68.72,68.72,0,1,0-48.34-4.74v35.83c0,.83,0,1.65,0,2.48,0,.27,0,.53,0,.8,0,.55,0,1.11.06,1.65,0,.33,0,.66.06,1,0,.48.05,1,.09,1.46l.09,1,.12,1.38.12,1.08.15,1.33.15,1.09c.05.44.11.87.18,1.3s.11.74.17,1.1l.21,1.28c.07.37.14.73.2,1.1s.16.84.25,1.26.14.73.22,1.1l.27,1.23c.08.37.17.74.26,1.1s.19.81.29,1.22.19.73.28,1.1l.33,1.19c.1.36.2.73.31,1.1s.23.77.34,1.16.23.74.34,1.11.25.76.37,1.14.24.73.37,1.1.26.75.4,1.12l.39,1.1c.13.36.28.72.41,1.08s.29.74.43,1.11.28.69.43,1,.3.75.46,1.13.28.62.41.94c.69,1.56,1.41,3.09,2.17,4.61l.34.7c.22.43.45.85.67,1.27l.41.78.69,1.23.43.78.71,1.22.46.77.74,1.2.47.76c.26.4.52.79.77,1.19l.49.73c.26.4.53.79.8,1.19.17.23.33.46.49.7s.56.79.85,1.18l.48.67.89,1.18c.16.21.32.43.49.64.3.39.61.79.93,1.18.15.2.31.39.47.59l1,1.2.44.52c.35.42.7.83,1.06,1.23.13.16.27.31.4.46l1.13,1.26.34.36,1.24,1.32.23.23a99.46,99.46,0,0,0,15.17,12.82h0c.59.41,1.19.81,1.79,1.21l.1.06c.59.38,1.18.76,1.78,1.13l.14.09c.59.37,1.19.73,1.79,1.08l.15.09,1.82,1,.14.07q.91.52,1.86,1l.11.06,1.92,1,.07,0a98,98,0,0,0,44,10.36l80.4-.07V525.58Zm-68.2-94.25a53.5,53.5,0,1,1,53.5-53.5,53.49,53.49,0,0,1-53.5,53.5" transform="translate(0 -67.55)"/><polygon class="cls-7" points="234.71 278.6 289.6 310.28 234.71 341.97 234.71 278.6"/><path class="cls-7" d="M151.06,276.13a50.35,50.35,0,0,1,50.3-50.3h99.92a50.35,50.35,0,0,1,50.3,50.3v215h48.34v-215a98.75,98.75,0,0,0-98.64-98.64H201.36a98.75,98.75,0,0,0-98.64,98.64v215h48.34Z" transform="translate(0 -67.55)"/><path class="cls-7" d="M328.93,626a34.06,34.06,0,1,1-34.06-34.06A34.06,34.06,0,0,1,328.93,626" transform="translate(0 -67.55)"/><path class="cls-6" d="M539,626A34.07,34.07,0,1,1,505,591.94,34.06,34.06,0,0,1,539,626" transform="translate(0 -67.55)"/><path class="cls-7" d="M530.23,626a34.07,34.07,0,1,1-34.06-34.06A34.06,34.06,0,0,1,530.23,626" transform="translate(0 -67.55)"/><rect class="cls-6" x="616.8" y="193.76" width="10.04" height="48.34"/><path class="cls-6" d="M577.66,309.65a50.36,50.36,0,0,0-50.09,45.76H488.71V564.94l.06,8.91,32.68.07h5.87v-9h0v9h10V360a50.35,50.35,0,0,1,50.3-50.3Z" transform="translate(0 -67.55)"/><path class="cls-7" d="M587.7,261.31h-10a98.76,98.76,0,0,0-98.53,94.1c-.07,1.5-.11,3-.11,4.54V525.58H429v48.34h98.33V360a50.35,50.35,0,0,1,50.3-50.3H616.8V261.31Z" transform="translate(0 -67.55)"/><g class="cls-8"><g class="cls-9"><g class="cls-10"><path class="cls-11" d="M711.12,329.12V168.94A101.39,101.39,0,0,0,609.73,67.55H101.39A101.39,101.39,0,0,0,0,168.94V366.55C78.91,440.1,201.1,487.31,338.27,487.31c159.23,0,298.26-63.61,372.85-158.19" transform="translate(0 -67.55)"/></g></g></g></g></g></svg>