<svg xmlns="http://www.w3.org/2000/svg" width="285" height="81.821" viewBox="460 364 285 81.821"><g data-name="Group 13"><path d="M730.265 445.822h-255.53c-8.137 0-14.735-5.34-14.735-11.926v-57.97c0-6.586 6.598-11.926 14.735-11.926h255.53c8.137 0 14.735 5.34 14.735 11.925v57.971c0 6.585-6.598 11.926-14.735 11.926Z" fill-rule="evenodd" data-name="Path 6"/><g data-name="Group 5"><path d="M487.296 426.59c.84-.829 1.68-1.657 2.517-2.488.686-.68 1.37-1.36 2.057-2.037l2.478-2.44c.696-.686 1.385-1.372 2.08-2.057.826-.814 1.657-1.625 2.482-2.435l2.043-2.01c.83-.824 1.662-1.645 2.493-2.468.825-.814 1.653-1.624 2.475-2.438.687-.68 1.37-1.362 2.06-2.042.383-.378.77-.753 1.152-1.133.089-.088.086-.178.004-.265-.05-.052-.1-.099-.154-.148-.495-.485-.99-.968-1.485-1.456-1.02-1.008-2.04-2.02-3.062-3.027-.87-.857-1.748-1.709-2.617-2.569-1.02-1.008-2.037-2.022-3.056-3.03-.879-.866-1.76-1.726-2.638-2.59-1.023-1.007-2.039-2.018-3.062-3.024-1.058-1.043-2.125-2.083-3.183-3.126-1.028-1.014-2.054-2.034-3.082-3.048-.87-.858-1.745-1.715-2.615-2.572a571.92 571.92 0 0 1-2.728-2.714c-.095-.014-.104-.15-.207-.154-.02.03-.041.044-.041.058-.003 18.343-.006 36.684-.006 55.026 0 .027.018.056.044.137.342-.34.649-.648.96-.953.826-.814 1.654-1.624 2.483-2.438.869-.851 1.738-1.703 2.608-2.56Z" fill="#fff" fill-rule="evenodd" data-name="Path 7"/><path d="M517.185 412.465a15.81 15.81 0 0 0-.06-.263c-.138.018-.22-.05-.306-.135-.286-.295-.58-.578-.872-.867-.922-.92-1.842-1.842-2.764-2.764l-1.565-1.568c-.106-.106-.18-.103-.283-.003-.94.931-1.88 1.863-2.818 2.8-1.4 1.4-2.788 2.811-4.188 4.211-1.443 1.444-2.893 2.877-4.34 4.318-1.518 1.514-3.033 3.03-4.548 4.547-1.231 1.235-2.463 2.47-3.698 3.705-1.232 1.231-2.47 2.46-3.702 3.695-1.037 1.038-2.072 2.078-3.106 3.118-.483.486-.967.973-1.462 1.474.047.032.062.053.077.053.4.003.799.006 1.2.006.038 0 .097-.015.111-.039.06-.106.157-.091.25-.094.083-.003.166.015.222-.082.02-.033.091-.036.135-.056.045-.021.104-.036.13-.071.044-.06.1-.07.162-.074.056-.003.091-.032.13-.073.065-.077.147-.14.22-.207.136.036.195-.118.296-.13.12-.011.182-.085.256-.153.083-.076.147-.176.286-.165.026.003.056-.053.085-.076.1-.08.165-.221.333-.198.027.003.06-.05.092-.074.112-.08.168-.25.35-.22.021.002.056-.03.071-.057a.13.13 0 0 1 .13-.07c.082.003.12-.05.18-.098.08-.061.112-.191.238-.185.097.003.142-.059.204-.118.082-.083.147-.206.303-.18.03.006.068-.074.109-.094.106-.056.147-.215.307-.186.026.006.062-.047.097-.07.032-.024.068-.06.103-.062.106 0 .165-.056.233-.133.07-.076.138-.192.28-.16.02.007.059-.023.076-.044.11-.123.204-.262.395-.259.01 0 .024-.008.027-.018.038-.096.124-.096.21-.108.034-.003.067-.039.096-.065.104-.094.18-.23.351-.224.018 0 .038-.018.053-.033.11-.118.198-.268.392-.259.009 0 .02-.006.027-.015.1-.168.265-.238.436-.312.047-.02.082-.088.153-.088.083.002.127-.042.18-.104.053-.067.132-.147.212-.162a.468.468 0 0 0 .233-.132c.085-.08.147-.216.306-.183.021.003.05-.03.071-.053.106-.112.2-.239.38-.23.015 0 .027-.03.044-.041.042-.03.083-.077.124-.077.098-.003.139-.08.206-.12.083-.05.098-.178.213-.171.109.008.162-.066.23-.13.076-.077.14-.183.283-.169.029.004.064-.04.097-.067.103-.091.168-.233.348-.221.053.003.108-.103.17-.112a.403.403 0 0 0 .233-.13c.086-.08.15-.197.307-.191.059.003.127-.092.182-.15.042-.045.062-.119.139-.107.112.015.159-.07.232-.13.083-.067.125-.209.275-.167.106-.077.215-.148.35-.162.01 0 .015-.015.024-.021.094-.089.153-.212.307-.239.141-.023.215-.147.297-.253.015-.02.059-.024.088-.027.077-.003.14-.012.184-.091.108-.189.353-.183.492-.333.165.024.232-.115.333-.198.03-.023.062-.082.085-.076.156.026.224-.097.307-.183.067-.07.124-.136.232-.13.033.003.077-.032.098-.065.118-.2.37-.191.521-.341.124.017.183-.077.257-.15.08-.08.15-.174.286-.157.026.003.056-.053.085-.076.103-.08.165-.219.33-.207.03.003.062-.047.094-.07.033-.024.068-.056.103-.06.095-.002.142-.053.207-.114.082-.077.156-.207.31-.177.02.003.05-.03.07-.05.11-.106.183-.257.371-.248.024 0 .047-.035.071-.056.073-.068.15-.135.224-.203.138.035.194-.133.295-.133.144-.003.197-.106.28-.177.07-.062.118-.141.232-.13.057.007.083-.043.121-.082.092-.091.162-.218.324-.209.036.003.077-.062.115-.097.06-.056.112-.154.177-.16a.457.457 0 0 0 .295-.144c.177.027.241-.13.35-.218.039-.03.083-.077.124-.077.098-.002.145-.056.207-.117.082-.083.153-.204.309-.177.024.003.056-.053.089-.08.076-.067.147-.18.232-.188.118-.015.177-.136.26-.133.156.006.241-.097.306-.183.083-.114.204-.088.292-.15.091-.065.16-.16.242-.239.012-.012.041-.012.062-.012.097.01.138-.056.203-.112.085-.076.147-.218.31-.182.02.003.058-.027.073-.05.035-.065.088-.086.156-.086.071 0 .106-.044.154-.088.094-.086.165-.221.33-.198.02.003.05-.032.07-.053.074-.074.136-.191.218-.209a.577.577 0 0 0 .292-.15c.162.026.233-.115.336-.192.033-.023.059-.085.085-.082.18.014.242-.142.351-.224.038-.03.083-.074.124-.074.097 0 .142-.056.203-.115.086-.08.15-.21.307-.183.02.003.059-.026.074-.05a.172.172 0 0 1 .156-.086c.068 0 .103-.04.153-.088.091-.091.165-.22.33-.197.02.003.05-.03.07-.05.107-.106.18-.257.37-.245.023 0 .047-.035.07-.056.1-.097.174-.236.35-.218.021.003.045-.041.068-.059.033-.023.071-.068.1-.065.145.018.192-.112.284-.17.05-.033.093-.119.132-.113.157.018.224-.106.306-.185.062-.062.113-.115.207-.115.035 0 .077-.03.103-.056.077-.068.147-.145.221-.215.13.023.21-.065.292-.14.168.028.268-.1.324-.202.073-.144.218-.056.295-.142.073-.082.162-.153.244-.227.006-.005.02-.005.03-.003.08.003.135-.017.18-.097.106-.194.35-.186.495-.327.153.03.224-.097.31-.177.064-.058.111-.118.205-.115.116.003.124-.13.216-.168.05-.023.058-.123.135-.112.124.018.198-.062.254-.144.114-.165.336-.141.457-.283.15.02.211-.109.303-.183.047-.038.074-.103.144-.097.098.006.139-.062.204-.112.073-.056.091-.186.203-.177.165.012.248-.188.419-.159.117-.162.294-.236.462-.33.115-.065.192-.2.298-.315-.292-.286-.578-.551-.85-.828-.135-.121-.238-.248-.423-.233Z" fill="#fff" fill-rule="evenodd" data-name="Path 8"/><path d="M488.133 379.748c1.35 1.35 2.685 2.711 4.034 4.06 1.495 1.495 3 2.977 4.495 4.469 1.229 1.222 2.449 2.458 3.675 3.684 1.24 1.24 2.484 2.475 3.725 3.715.843.844 1.677 1.69 2.517 2.532.875.879 1.747 1.76 2.626 2.635.704.704 1.414 1.403 2.121 2.104.121.121.174.121.301-.003.802-.793 1.603-1.582 2.4-2.378.866-.87 1.726-1.748 2.59-2.62.135-.139.156-.148.38-.2.014-.074.032-.154.047-.23.088-.024.168-.042.236-.06.017-.087.035-.155.053-.238.144.012.25-.033.33-.147.047-.065.118-.113.176-.171l.599-.616c-.171-.15-.274-.357-.516-.38-.009 0-.02-.01-.026-.018-.107-.148-.233-.256-.422-.274-.035-.097-.118-.106-.206-.11-.03 0-.071-.011-.086-.032a.642.642 0 0 0-.412-.292c-.083-.02-.133-.15-.212-.214-.077-.06-.219.005-.269-.13-.009-.02-.056-.039-.082-.036-.13.018-.174-.09-.254-.153-.076-.062-.13-.162-.256-.144-.03.003-.074-.032-.1-.062-.098-.103-.18-.233-.348-.224-.018 0-.038-.018-.05-.033-.109-.14-.233-.259-.421-.276-.042-.089-.115-.11-.207-.113-.035 0-.077-.029-.103-.055-.106-.107-.183-.245-.371-.248-.053 0-.106-.091-.16-.139-.052-.044-.073-.13-.167-.12-.08.009-.124-.045-.18-.097-.094-.086-.162-.23-.33-.207-.024.003-.06-.026-.074-.05-.03-.053-.07-.083-.127-.074-.103.015-.147-.053-.203-.118-.053-.062-.124-.15-.186-.15-.141.003-.203-.094-.28-.17-.073-.074-.138-.148-.26-.145-.035 0-.067-.068-.11-.092-.104-.058-.151-.212-.308-.185-.023.003-.064-.02-.08-.045-.04-.073-.102-.1-.182-.097-.076.006-.1-.059-.144-.103-.065-.065-.141-.115-.212-.17-.148.04-.198-.095-.277-.166-.071-.062-.115-.141-.227-.138-.042 0-.083-.05-.124-.08-.106-.074-.165-.206-.33-.203-.068 0-.13-.103-.203-.121a.402.402 0 0 1-.204-.12c-.082-.08-.141-.216-.303-.184-.03.006-.071-.062-.11-.094-.07-.059-.135-.144-.215-.165-.097-.023-.159-.074-.232-.133-.068-.055-.103-.18-.213-.162-.132.024-.162-.138-.262-.135-.127.006-.183-.077-.256-.148-.08-.076-.142-.182-.283-.162-.027.003-.06-.053-.092-.073-.106-.074-.168-.216-.33-.204-.026.003-.056-.053-.088-.074-.115-.082-.18-.238-.357-.22-.02.002-.044-.042-.07-.056-.042-.024-.086-.062-.13-.065-.082-.006-.127-.047-.177-.11-.056-.07-.135-.156-.212-.164-.12-.015-.17-.107-.253-.157-.077-.047-.098-.18-.224-.144-.121.032-.13-.141-.23-.13-.156.018-.207-.12-.304-.188-.047-.036-.065-.112-.144-.106-.095.006-.142-.05-.206-.112-.083-.083-.154-.206-.31-.177-.024.003-.06-.05-.088-.074-.11-.085-.171-.235-.351-.227-.053.003-.112-.112-.168-.112-.127.003-.18-.088-.253-.15-.077-.068-.136-.16-.26-.15-.032.003-.07-.036-.097-.065-.098-.1-.171-.233-.345-.227-.03 0-.068-.044-.088-.077-.121-.18-.354-.188-.499-.333-.153.033-.223-.094-.306-.174-.062-.059-.11-.112-.206-.114-.041 0-.086-.045-.124-.074-.077-.065-.142-.177-.227-.198-.112-.026-.177-.088-.26-.147-.073-.05-.1-.174-.223-.147-.118.026-.13-.142-.23-.133-.168.015-.224-.133-.324-.212-.038-.033-.065-.083-.121-.08-.094.006-.144-.047-.207-.109-.082-.08-.15-.21-.306-.189-.026.003-.059-.05-.091-.073-.11-.086-.18-.233-.357-.215-.02.003-.041-.042-.067-.056-.033-.024-.068-.062-.1-.06-.113.012-.169-.058-.23-.132-.054-.062-.119-.147-.186-.153-.118-.012-.177-.089-.26-.145-.07-.05-.103-.17-.224-.144-.126.027-.138-.153-.262-.141-.083.008-.127-.042-.183-.098-.091-.091-.162-.22-.33-.203-.026.003-.056-.05-.085-.077-.1-.082-.171-.215-.333-.203-.03.003-.062-.047-.092-.074-.103-.094-.173-.238-.35-.217-.015.002-.042-.018-.05-.033-.039-.08-.106-.094-.183-.091-.056 0-.086-.036-.127-.074-.08-.077-.127-.206-.256-.212-.112-.003-.156-.08-.23-.136-.074-.062-.124-.174-.254-.15-.059.009-.082-.053-.12-.083-.086-.059-.121-.194-.23-.194-.124 0-.174-.136-.263-.133-.153.006-.223-.097-.306-.18-.062-.062-.11-.123-.204-.117-.073.002-.103-.056-.147-.104-.062-.064-.135-.12-.206-.177-.142.036-.2-.094-.283-.158-.074-.06-.12-.142-.233-.133-.026.003-.07-.018-.08-.039-.043-.091-.123-.097-.209-.108-.044-.006-.08-.057-.118-.09-.07-.058-.138-.164-.209-.164-.138-.003-.203-.091-.283-.17-.073-.074-.135-.151-.256-.151-.038 0-.07-.07-.112-.091-.106-.057-.15-.21-.31-.183-.026.006-.062-.047-.094-.068-.032-.024-.07-.059-.103-.059-.112.006-.165-.065-.23-.139-.053-.058-.12-.141-.188-.144-.121-.006-.18-.082-.257-.147-.076-.065-.13-.165-.256-.153-.033.002-.077-.033-.1-.062-.033-.048-.074-.077-.13-.074-.08.003-.13-.033-.183-.097-.056-.071-.133-.157-.209-.168-.115-.018-.183-.077-.253-.15-.077-.08-.145-.183-.284-.169-.029.003-.07-.041-.09-.07-.119-.186-.355-.183-.496-.328-.17.036-.233-.117-.327-.203-.056-.053-.1-.097-.183-.094-.07.003-.1-.047-.147-.092-.089-.076-.144-.215-.298-.197-.026.003-.065-.018-.082-.038-.11-.142-.233-.26-.425-.271-.038-.098-.115-.11-.206-.11-.06 0-.083-.052-.12-.082-.08-.065-.116-.195-.228-.198-.124 0-.18-.082-.256-.147-.074-.064-.133-.162-.257-.144-.023.003-.056-.024-.076-.044-.115-.115-.206-.269-.401-.26-.009 0-.02-.011-.024-.02-.038-.095-.12-.103-.206-.107-.059 0-.082-.047-.118-.088-.059-.068-.135-.12-.206-.18-.18.024-.262-.206-.445-.176-.056-.11-.153-.127-.262-.133-.018 0-.039-.02-.047-.038-.047-.097-.136-.086-.219-.086-.348 0-.695-.003-1.043 0-.091 0-.186.01-.348.015.104.115.16.185.222.247 1.5 1.471 2.994 2.95 4.482 4.439Z" fill="#fff" fill-rule="evenodd" data-name="Path 9"/><path d="M530.096 404.663c-.003-.05-.008-.12-.038-.144-.132-.092-.097-.22-.1-.342-.003-.103.018-.209-.094-.28-.033-.02-.045-.088-.05-.138-.01-.071-.003-.145-.003-.195-.118-.147-.298-.215-.29-.418 0-.03-.046-.06-.076-.089-.171-.177-.333-.362-.516-.53-.085-.08-.156-.204-.309-.183-.027.003-.065-.044-.094-.07-.104-.095-.171-.237-.348-.222-.027.003-.053-.056-.086-.08-.102-.076-.17-.215-.333-.2-.023.003-.056-.029-.07-.056-.039-.062-.095-.073-.16-.082a.241.241 0 0 1-.132-.062c-.1-.103-.177-.23-.348-.22-.023 0-.05-.034-.073-.054-.11-.106-.186-.257-.372-.241-.068-.066-.139-.124-.198-.196-.038-.043-.073-.073-.129-.07-.083.003-.12-.047-.18-.1-.094-.086-.162-.227-.33-.207-.023.003-.059-.026-.074-.05-.03-.053-.07-.082-.126-.074-.103.016-.139-.067-.207-.114-.076-.05-.103-.174-.215-.165-.1.008-.138-.068-.203-.115-.074-.053-.1-.174-.21-.174-.102 0-.161-.044-.232-.124-.068-.08-.136-.188-.28-.174-.035.003-.074-.068-.118-.088-.091-.044-.118-.195-.236-.18-.132.018-.162-.138-.262-.136-.124.004-.183-.07-.254-.144-.076-.08-.138-.183-.282-.165-.033.003-.071-.065-.11-.097-.07-.056-.14-.153-.215-.157-.126-.008-.176-.094-.253-.156-.076-.062-.124-.176-.253-.153-.018.003-.048-.003-.06-.017-.073-.074-.138-.151-.212-.222-.073-.07-.218.01-.27-.123-.013-.027-.071-.045-.11-.048a.232.232 0 0 1-.183-.1c-.052-.073-.13-.13-.191-.186h-.298l-.822.838c-.03.029-.082.062-.08.085.021.165-.103.242-.191.33-1.008 1.008-2.025 2.01-3.032 3.018-.988.987-1.97 1.978-2.954 2.965-.124.126-.126.174-.002.298.539.547 1.078 1.096 1.62 1.638.734.734 1.471 1.459 2.205 2.193.745.745 1.488 1.5 2.23 2.248.124.036.107.142.118.233.004.017.021.033.042.062.032.006.074.009.112.02.038.01.076.027.106.036.044.197.041.2.168.33.16.16.32.318.48.475h.307c.088-.089.153-.207.248-.245.114-.044.23-.074.315-.168.162.024.23-.118.336-.195.032-.023.059-.08.085-.08.177.01.245-.134.35-.226.036-.033.083-.074.124-.074.098-.003.14-.07.204-.118.074-.053.097-.18.215-.162.118.018.16-.074.227-.135.08-.071.133-.168.277-.174.106-.006.186-.156.324-.139.012.003.027-.026.044-.038.106-.077.156-.215.316-.233.144-.015.2-.162.292-.253.014-.015.04-.027.056-.02.156.034.224-.101.306-.18.065-.063.112-.119.206-.116a.124.124 0 0 0 .083-.035c.112-.139.232-.26.424-.274.044-.11.142-.103.233-.121.032-.006.059-.056.091-.076.11-.071.156-.23.325-.21.097-.088.197-.177.297-.262.015-.012.042-.015.062-.009.103.018.136-.07.204-.115.076-.053.1-.183.209-.171.13.015.177-.091.256-.15.041-.03.068-.106.103-.106.145-.006.233-.133.354-.156.103-.021.156-.08.227-.142.082-.068.135-.191.283-.168.032.006.073-.06.112-.091.07-.06.138-.121.21-.18.155.038.22-.106.308-.18a3.63 3.63 0 0 0 .41-.412c.085-.098.221-.165.2-.33-.003-.021.03-.05.05-.071.074-.074.148-.142.204-.198.038-.162-.041-.33.132-.421.024-.012.027-.077.03-.118.003-.082-.006-.168.003-.254.006-.05.017-.117.05-.138.089-.056.089-.135.089-.22.002-.148.005-.305.002-.464Z" fill="#fff" fill-rule="evenodd" data-name="Path 10"/></g><g data-name="Group 8"><g data-name="Group 6"><path d="m546.473 384.779-1.237 3.748h-1.592l4.05-11.918h1.856l4.067 11.918h-1.644l-1.274-3.748h-4.226Zm3.908-1.203-1.167-3.43c-.265-.778-.442-1.485-.619-2.175h-.035a36.499 36.499 0 0 1-.601 2.157l-1.167 3.448h3.59Z" fill="#fff" fill-rule="evenodd" data-name="Path 11"/><path d="m555.544 379.969 1.68 4.81c.283.778.513 1.485.69 2.192h.053c.194-.707.442-1.414.725-2.193l1.662-4.809h1.627l-3.36 8.559h-1.485l-3.254-8.559h1.662Z" fill="#fff" fill-rule="evenodd" data-name="Path 12"/><path d="m568.117 388.527-.124-1.078h-.053c-.477.672-1.397 1.273-2.617 1.273-1.733 0-2.617-1.22-2.617-2.458 0-2.069 1.839-3.2 5.146-3.183v-.177c0-.707-.195-1.98-1.945-1.98-.796 0-1.627.247-2.228.636l-.354-1.025c.707-.46 1.733-.76 2.812-.76 2.617 0 3.253 1.785 3.253 3.5v3.201c0 .743.035 1.468.141 2.051h-1.414Zm-.23-4.367c-1.697-.036-3.625.265-3.625 1.927 0 1.008.672 1.485 1.468 1.485 1.114 0 1.821-.707 2.069-1.432.053-.16.088-.336.088-.495v-1.485Z" fill="#fff" fill-rule="evenodd" data-name="Path 13"/><path d="M573.633 377.564c.018.53-.371.955-.99.955-.548 0-.937-.424-.937-.955 0-.548.407-.973.972-.973.584 0 .955.425.955.973Zm-1.733 10.963v-8.558h1.556v8.558H571.9Z" fill="#fff" fill-rule="evenodd" data-name="Path 14"/><path d="M576.038 375.973h1.556v12.554h-1.556v-12.554Z" fill="#fff" fill-rule="evenodd" data-name="Path 15"/><path d="m584.95 388.527-.123-1.078h-.053c-.478.672-1.397 1.273-2.618 1.273-1.732 0-2.616-1.22-2.616-2.458 0-2.069 1.839-3.2 5.145-3.183v-.177c0-.707-.194-1.98-1.945-1.98-.795 0-1.627.247-2.228.636l-.354-1.025c.708-.46 1.733-.76 2.812-.76 2.617 0 3.254 1.785 3.254 3.5v3.201c0 .743.035 1.468.14 2.051h-1.413Zm-.23-4.367c-1.697-.036-3.624.265-3.624 1.927 0 1.008.672 1.485 1.468 1.485 1.113 0 1.82-.707 2.068-1.432a1.63 1.63 0 0 0 .089-.495v-1.485Z" fill="#fff" fill-rule="evenodd" data-name="Path 16"/><path d="M588.663 388.527c.036-.583.071-1.45.071-2.21v-10.344h1.539v5.375h.035c.549-.955 1.538-1.574 2.917-1.574 2.123 0 3.625 1.769 3.608 4.368 0 3.059-1.927 4.58-3.837 4.58-1.238 0-2.228-.478-2.865-1.61h-.053l-.07 1.415h-1.345Zm1.61-3.43c0 .194.035.389.07.566.3 1.078 1.203 1.821 2.334 1.821 1.627 0 2.6-1.327 2.6-3.29 0-1.714-.884-3.182-2.547-3.182-1.06 0-2.05.725-2.369 1.91-.035.177-.088.389-.088.636v1.539Z" fill="#fff" fill-rule="evenodd" data-name="Path 17"/><path d="M598.796 375.973h1.556v12.554h-1.556v-12.554Z" fill="#fff" fill-rule="evenodd" data-name="Path 18"/><path d="M614.462 384.178c0 3.165-2.193 4.544-4.262 4.544-2.316 0-4.102-1.698-4.102-4.403 0-2.864 1.875-4.545 4.244-4.545 2.458 0 4.12 1.786 4.12 4.404Zm-6.79.088c0 1.874 1.078 3.289 2.599 3.289 1.486 0 2.6-1.397 2.6-3.324 0-1.45-.725-3.29-2.565-3.29-1.839 0-2.634 1.698-2.634 3.325Z" fill="#fff" fill-rule="evenodd" data-name="Path 19"/><path d="M616.425 382.285c0-.884-.018-1.609-.07-2.316h1.378l.089 1.415h.035c.425-.814 1.415-1.61 2.83-1.61 1.184 0 3.023.708 3.023 3.643v5.11h-1.556v-4.933c0-1.38-.513-2.529-1.98-2.529-1.026 0-1.822.725-2.087 1.592a2.24 2.24 0 0 0-.106.725v5.146h-1.556v-6.243Z" fill="#fff" fill-rule="evenodd" data-name="Path 20"/><path d="M631.861 377.511v2.458h2.229v1.185h-2.229v4.615c0 1.06.301 1.662 1.168 1.662.406 0 .707-.053.901-.106l.071 1.167c-.3.124-.778.212-1.379.212-.725 0-1.308-.23-1.68-.654-.442-.46-.602-1.22-.602-2.228v-4.668h-1.325v-1.185h1.325v-2.052l1.521-.406Z" fill="#fff" fill-rule="evenodd" data-name="Path 21"/><path d="M635.84 375.973h1.556v5.34h.036a2.89 2.89 0 0 1 1.114-1.097 3.198 3.198 0 0 1 1.592-.442c1.149 0 2.987.708 2.987 3.66v5.093h-1.555v-4.916c0-1.379-.513-2.546-1.98-2.546-1.008 0-1.804.707-2.087 1.556-.088.212-.106.442-.106.743v5.163h-1.557v-12.554Z" fill="#fff" fill-rule="evenodd" data-name="Path 22"/><path d="M646.521 384.531c.036 2.104 1.38 2.97 2.936 2.97 1.113 0 1.785-.194 2.369-.441l.265 1.114c-.548.247-1.485.53-2.847.53-2.634 0-4.209-1.733-4.209-4.314 0-2.582 1.522-4.616 4.014-4.616 2.794 0 3.537 2.458 3.537 4.032 0 .318-.035.566-.053.725h-6.012Zm4.562-1.114c.018-.99-.407-2.529-2.157-2.529-1.574 0-2.264 1.45-2.387 2.53h4.544Z" fill="#fff" fill-rule="evenodd" data-name="Path 23"/></g><g data-name="Group 7"><path d="M564.727 425.862c-1.426.513-4.238 1.353-7.565 1.353-3.728 0-6.796-.95-9.21-3.254-2.118-2.045-3.436-5.334-3.436-9.171.036-7.344 5.081-12.717 13.339-12.717 2.85 0 5.08.622 6.138 1.132l-.766 2.593c-1.314-.583-2.959-1.06-5.443-1.06-5.991 0-9.902 3.727-9.902 9.901 0 6.248 3.763 9.94 9.501 9.94 2.084 0 3.507-.29 4.238-.656v-7.344h-5.007v-2.559h8.113v11.842Z" fill="#fff" fill-rule="evenodd" data-name="Path 24"/><path d="M585.666 417.97c0 6.54-4.532 9.392-8.805 9.392-4.787 0-8.48-3.507-8.48-9.1 0-5.921 3.873-9.393 8.771-9.393 5.078.003 8.514 3.693 8.514 9.1Zm-14.034.182c0 3.873 2.228 6.796 5.373 6.796 3.07 0 5.373-2.888 5.373-6.87 0-2.996-1.498-6.795-5.3-6.795-3.801 0-5.446 3.507-5.446 6.87Z" fill="#fff" fill-rule="evenodd" data-name="Path 25"/><path d="M605.727 417.97c0 6.54-4.532 9.392-8.805 9.392-4.786 0-8.48-3.507-8.48-9.1 0-5.921 3.873-9.393 8.77-9.393 5.082.003 8.515 3.693 8.515 9.1Zm-14.03.182c0 3.873 2.227 6.796 5.372 6.796 3.07 0 5.372-2.888 5.372-6.87 0-2.996-1.497-6.795-5.299-6.795-3.801 0-5.446 3.507-5.446 6.87Z" fill="#fff" fill-rule="evenodd" data-name="Path 26"/><path d="M625.022 409.273a77.042 77.042 0 0 0-.147 4.86V424.4c0 4.056-.805 6.543-2.523 8.075-1.718 1.61-4.202 2.12-6.43 2.12-2.12 0-4.46-.513-5.883-1.463l.805-2.448c1.17.73 2.997 1.388 5.19 1.388 3.288 0 5.7-1.719 5.7-6.178v-1.974h-.074c-.987 1.644-2.888 2.959-5.63 2.959-4.385 0-7.526-3.728-7.526-8.624 0-5.99 3.91-9.392 7.966-9.392 3.07 0 4.75 1.61 5.517 3.071h.073l.148-2.667h2.814Zm-3.324 6.979c0-.549-.035-1.023-.183-1.462-.583-1.863-2.157-3.398-4.494-3.398-3.071 0-5.264 2.593-5.264 6.687 0 3.471 1.754 6.357 5.225 6.357 1.975 0 3.764-1.244 4.46-3.29.182-.548.256-1.17.256-1.718v-3.176Z" fill="#fff" fill-rule="evenodd" data-name="Path 27"/><path d="M630.211 401.015h3.216v25.946h-3.216v-25.946Z" fill="#fff" fill-rule="evenodd" data-name="Path 28"/><path d="M640.626 418.7c.074 4.348 2.85 6.14 6.065 6.14 2.302 0 3.69-.401 4.898-.914l.549 2.302c-1.132.513-3.071 1.096-5.882 1.096-5.444 0-8.697-3.58-8.697-8.915 0-5.334 3.14-9.537 8.296-9.537 5.773 0 7.309 5.081 7.309 8.332 0 .657-.074 1.17-.11 1.497h-12.428Zm9.428-2.3c.035-2.046-.84-5.226-4.46-5.226-3.252 0-4.676 2.997-4.932 5.225h9.392Z" fill="#fff" fill-rule="evenodd" data-name="Path 29"/><path d="M665.002 402.624c1.535-.256 3.545-.474 6.103-.474 3.141 0 5.446.73 6.905 2.045 1.352 1.17 2.157 2.959 2.157 5.151 0 2.229-.657 3.985-1.9 5.264-1.68 1.792-4.421 2.703-7.527 2.703-.95 0-1.827-.036-2.558-.219v9.867h-3.18v-24.337Zm3.18 11.874c.695.183 1.57.257 2.631.257 3.837 0 6.175-1.863 6.175-5.261 0-3.254-2.302-4.824-5.81-4.824-1.387 0-2.449.109-2.996.256v9.572Z" fill="#fff" fill-rule="evenodd" data-name="Path 30"/><path d="M684.152 401.015h3.214v25.946h-3.214v-25.946Z" fill="#fff" fill-rule="evenodd" data-name="Path 31"/><path d="m702.568 426.958-.256-2.228h-.109c-.987 1.388-2.889 2.632-5.408 2.632-3.58 0-5.408-2.523-5.408-5.08 0-4.277 3.802-6.614 10.633-6.578v-.366c0-1.462-.4-4.093-4.02-4.093-1.644 0-3.362.512-4.603 1.314l-.73-2.119c1.46-.95 3.58-1.57 5.808-1.57 5.408 0 6.722 3.689 6.722 7.234v6.613c0 1.536.074 3.033.291 4.238h-2.92Zm-.474-9.024c-3.507-.073-7.492.548-7.492 3.982 0 2.083 1.388 3.07 3.033 3.07 2.301 0 3.764-1.46 4.276-2.958.109-.33.183-.696.183-1.023v-3.07Z" fill="#fff" fill-rule="evenodd" data-name="Path 32"/><path d="m711.265 409.273 3.872 10.45c.401 1.17.84 2.558 1.132 3.619h.074c.33-1.06.696-2.41 1.132-3.69l3.507-10.376h3.397l-4.824 12.607c-2.302 6.065-3.872 9.172-6.065 11.072-1.571 1.388-3.141 1.937-3.946 2.084l-.805-2.705a8.518 8.518 0 0 0 2.815-1.571c.878-.696 1.975-1.937 2.705-3.58.148-.33.257-.584.257-.767 0-.183-.074-.439-.219-.84l-6.539-16.297h3.507Z" fill="#fff" fill-rule="evenodd" data-name="Path 33"/></g></g></g></svg>