<svg xmlns="http://www.w3.org/2000/svg" width="35.258" height="28.744" viewBox="86 340.256 35.258 28.744"><path d="M86 365.989c3.79-.161 7.322-.428 10.32-3.122-3.402-.296-5.419-2.16-6.69-5.072h3.013l.104-.24c-3.431-1.142-5.171-3.537-5.474-7.164 1.078.648 2.097 1.077 3.41.836-1.52-1.19-2.717-2.531-3.182-4.36-.471-1.852-.124-3.6.792-5.36 4.078 4.41 8.75 7.525 14.831 7.584.146-1.295.108-2.535.443-3.663 1.52-5.112 7.945-6.856 12.058-3.306.438.379.79.46 1.292.233 1.184-.534 2.379-1.042 3.758-1.642-.476.804-.825 1.532-1.304 2.162-.485.64-1.099 1.181-1.807 1.924l3.694-1.007c-.7 1.29-1.6 2.388-2.897 3.1-.396.217-.495.453-.479.876.389 10.342-6.467 18.924-16.705 20.84-5.088.952-9.942.158-14.53-2.246-.157-.083-.309-.178-.647-.373" fill-rule="evenodd" data-name="Path 57"/></svg>