<svg xmlns="http://www.w3.org/2000/svg" width="11.852" height="11.852" viewBox="1533 272 11.852 11.852"><path d="M1538.926 272a5.928 5.928 0 0 0-5.926 5.926 5.928 5.928 0 0 0 5.926 5.926 5.928 5.928 0 0 0 5.926-5.926 5.928 5.928 0 0 0-5.926-5.926Zm-.593 10.625a4.734 4.734 0 0 1-4.148-4.7c0-.367.048-.716.125-1.06l2.838 2.839v.592c0 .652.533 1.185 1.185 1.185v1.144Zm4.089-1.505a1.176 1.176 0 0 0-1.126-.824h-.592v-1.778a.594.594 0 0 0-.593-.592h-3.556v-1.185h1.186a.594.594 0 0 0 .592-.593v-1.185h1.185c.652 0 1.186-.533 1.186-1.185v-.243a4.743 4.743 0 0 1 2.962 4.39 4.715 4.715 0 0 1-1.244 3.195Z" fill-rule="evenodd" data-name="Icon material-public"/></svg>