<svg xmlns="http://www.w3.org/2000/svg" width="11.851" height="11.851" viewBox="1533 302 11.851 11.851"><g data-name="Icon feather-edit"><path d="M1542.108 313.851h-7.5a1.609 1.609 0 0 1-1.608-1.607v-7.5c0-.887.721-1.608 1.607-1.608h3.75a.536.536 0 1 1 0 1.072h-3.75a.536.536 0 0 0-.536.536v7.5c0 .295.24.536.536.536h7.5c.296 0 .536-.24.536-.536v-3.75a.536.536 0 1 1 1.072 0v3.75c0 .886-.721 1.607-1.607 1.607Z" fill-rule="evenodd" data-name="Path 3036"/><path d="M1543.179 302c.447 0 .867.174 1.182.49.316.316.49.736.49 1.182 0 .447-.174.867-.49 1.183l-5.09 5.09a.536.536 0 0 1-.248.14l-2.143.536a.536.536 0 0 1-.65-.65l.536-2.143a.536.536 0 0 1 .141-.249l5.09-5.09c.315-.315.735-.489 1.182-.489Zm-4.56 7.082 4.985-4.985a.601.601 0 0 0-.85-.85l-4.984 4.985-.284 1.133 1.133-.283Z" fill-rule="evenodd" data-name="Path 3037"/></g></svg>