<svg xmlns="http://www.w3.org/2000/svg" width="38" height="21" viewBox="1621.5 228.5 38 21"><g data-name="Group 129"><path d="M5 0h29a5 5 0 0 1 5 5v12a5 5 0 0 1-5 5H5a5 5 0 0 1-5-5V5a5 5 0 0 1 5-5z" stroke-linejoin="round" stroke-linecap="round" stroke="#ddb438" fill="transparent" transform="matrix(.97436 0 0 .95455 1621.5 228.5)" data-name="Rectangle 798"/><g data-name="Group 128"><path d="M1629 239.4a2.5 2.5 0 1 1 0 .1z" fill="#ddb438" fill-rule="evenodd" data-name="Ellipse 4"/><path d="M1638 239.4a2.5 2.5 0 1 1 0 .1z" fill="#ddb438" fill-rule="evenodd" data-name="Ellipse 5"/><path d="M1647 239.4a2.5 2.5 0 1 1 0 .1z" fill="#ddb438" fill-rule="evenodd" data-name="Ellipse 6"/></g></g></svg>