<svg xmlns="http://www.w3.org/2000/svg" width="22.056" height="24.147" viewBox="62.209 240 22.056 24.147"><g data-name="Evant Icon"><path d="M81.895 242.091H78.34v-1.083a1.008 1.008 0 0 0-2.015 0v4.182a1.008 1.008 0 1 0 2.015 0v-1.083h3.555c.196 0 .355.159.355.354v4.95H64.224v-4.95c0-.195.16-.354.355-.354h2.807v1.083a1.008 1.008 0 0 0 2.015 0v-4.182a1.007 1.007 0 1 0-2.015 0v1.083H64.58a2.373 2.373 0 0 0-2.37 2.37v17.316a2.373 2.373 0 0 0 2.37 2.37h17.316a2.373 2.373 0 0 0 2.37-2.37v-17.316a2.373 2.373 0 0 0-2.37-2.37Zm0 20.04H64.579a.355.355 0 0 1-.355-.354v-10.351H82.25v10.351a.355.355 0 0 1-.355.355Z" fill="#ddb438" fill-rule="evenodd" data-name="Path 3019"/><path d="M71.593 244.107h2.576a1.008 1.008 0 0 0 0-2.016h-2.576a1.008 1.008 0 0 0 0 2.016Z" fill="#ddb438" fill-rule="evenodd" data-name="Path 3020"/><path d="M76.834 255.634h-2.54a.143.143 0 0 1-.136-.099l-.785-2.415a.143.143 0 0 0-.272 0l-.785 2.415a.144.144 0 0 1-.136.1h-2.54a.143.143 0 0 0-.084.259l2.054 1.492c.05.037.072.102.052.16l-.784 2.416a.143.143 0 0 0 .22.16l2.055-1.492a.144.144 0 0 1 .168 0l2.055 1.492a.143.143 0 0 0 .22-.16l-.784-2.415a.143.143 0 0 1 .052-.16l2.055-1.493a.143.143 0 0 0-.085-.26Z" fill="#ddb438" fill-rule="evenodd" data-name="Path 3021"/></g></svg>