<svg xmlns="http://www.w3.org/2000/svg" width="26.664" height="26.652" viewBox="223.914 208 26.664 26.652"><g data-name="help Icon"><path d="M246.673 211.898c-5.198-5.197-13.657-5.197-18.855 0a13.246 13.246 0 0 0-3.904 9.428c0 3.561 1.386 6.909 3.904 9.427a13.29 13.29 0 0 0 9.427 3.899c3.414 0 6.829-1.3 9.428-3.899a13.245 13.245 0 0 0 3.905-9.427c0-3.561-1.387-6.91-3.905-9.428Zm-1.463 17.392c-4.392 4.391-11.537 4.392-15.929 0a11.189 11.189 0 0 1-3.299-7.964 11.19 11.19 0 0 1 3.3-7.964 11.228 11.228 0 0 1 7.963-3.294c2.885 0 5.769 1.098 7.965 3.294a11.19 11.19 0 0 1 3.299 7.964 11.19 11.19 0 0 1-3.3 7.964Z" fill="#39331b" fill-rule="evenodd" data-name="Path 3022"/><path d="M237.246 214.924c-.572 0-1.035.463-1.035 1.035v6.187a1.034 1.034 0 1 0 2.069 0v-6.187c0-.572-.463-1.035-1.034-1.035Z" fill="#39331b" fill-rule="evenodd" data-name="Path 3023"/><path d="M237.246 224.823c-.572 0-1.035.463-1.035 1.035v.835a1.035 1.035 0 1 0 2.069 0v-.835c0-.572-.463-1.035-1.034-1.035Z" fill="#39331b" fill-rule="evenodd" data-name="Path 3024"/></g></svg>