<svg xmlns="http://www.w3.org/2000/svg" width="27.406" height="27.406" viewBox="271.86 207 27.406 27.406"><g data-name="Icon feather-settings"><path d="M285.563 216.135a4.573 4.573 0 0 1 4.568 4.568 4.573 4.573 0 0 1-4.568 4.568 4.573 4.573 0 0 1-4.568-4.568 4.573 4.573 0 0 1 4.568-4.568Zm0 6.852a2.286 2.286 0 0 0 2.284-2.284 2.286 2.286 0 0 0-2.284-2.284 2.286 2.286 0 0 0-2.284 2.284 2.286 2.286 0 0 0 2.284 2.284Z" fill="#39331b" fill-rule="evenodd" data-name="Path 3027"/><path d="M285.654 234.406a3.43 3.43 0 0 1-3.425-3.426v-.086a.738.738 0 0 0-.486-.669 1.136 1.136 0 0 1-.067-.027.737.737 0 0 0-.815.145l-.063.063a3.403 3.403 0 0 1-2.424 1.004 3.403 3.403 0 0 1-2.423-1.004 3.402 3.402 0 0 1-1.004-2.423c0-.916.357-1.777 1.005-2.424l.062-.062a.739.739 0 0 0 .14-.827.742.742 0 0 0-.677-.45h-.191a3.43 3.43 0 0 1-3.426-3.426 3.43 3.43 0 0 1 3.426-3.425h.086a.738.738 0 0 0 .669-.486c.008-.022.017-.045.027-.067a.739.739 0 0 0-.145-.815l-.063-.063a3.403 3.403 0 0 1-1.004-2.423c0-.916.356-1.777 1.004-2.424a3.402 3.402 0 0 1 2.423-1.004c.916 0 1.777.357 2.424 1.005l.062.062a.739.739 0 0 0 .816.146c.073-.033.15-.057.227-.074a.742.742 0 0 0 .325-.61v-.19a3.43 3.43 0 0 1 3.426-3.426 3.43 3.43 0 0 1 3.426 3.426v.1a.742.742 0 0 0 .46.682.737.737 0 0 0 .816-.145l.063-.063a3.403 3.403 0 0 1 2.423-1.004c.916 0 1.777.357 2.424 1.004a3.402 3.402 0 0 1 1.004 2.423c0 .916-.357 1.777-1.005 2.424l-.062.063a.739.739 0 0 0-.145.815c.032.073.056.15.073.227.135.2.362.324.61.325h.19a3.43 3.43 0 0 1 3.426 3.426 3.43 3.43 0 0 1-3.426 3.426h-.1a.742.742 0 0 0-.682.461.739.739 0 0 0 .145.815l.063.063a3.403 3.403 0 0 1 1.004 2.424c0 .915-.357 1.776-1.004 2.423a3.402 3.402 0 0 1-2.423 1.004 3.403 3.403 0 0 1-2.424-1.005l-.063-.062a.739.739 0 0 0-.826-.14.742.742 0 0 0-.45.677v.191a3.43 3.43 0 0 1-3.426 3.426Zm-3.089-6.312a3.01 3.01 0 0 1 1.947 2.784v.102c0 .63.513 1.142 1.142 1.142.63 0 1.142-.512 1.142-1.142v-.198a3.025 3.025 0 0 1 1.829-2.767c.386-.17.795-.255 1.215-.255a3.01 3.01 0 0 1 2.126.871l.068.069c.217.216.503.335.809.335.305 0 .592-.119.808-.335.216-.216.335-.503.335-.808 0-.306-.119-.593-.334-.808l-.07-.07a3.012 3.012 0 0 1-.616-3.341 3.024 3.024 0 0 1 2.767-1.828h.107c.63 0 1.142-.512 1.142-1.142 0-.63-.512-1.142-1.142-1.142h-.198a3.024 3.024 0 0 1-2.77-1.834 1.142 1.142 0 0 1-.082-.3 3.01 3.01 0 0 1 .701-3.127l.069-.068c.216-.216.335-.503.335-.809 0-.305-.119-.592-.335-.808a1.135 1.135 0 0 0-.809-.335c-.305 0-.592.119-.808.335l-.069.068a3.01 3.01 0 0 1-2.125.872c-.42 0-.83-.086-1.215-.255a3.025 3.025 0 0 1-1.83-2.767v-.107c0-.63-.511-1.142-1.141-1.142s-1.142.512-1.142 1.142v.198a3.024 3.024 0 0 1-1.834 2.77 1.142 1.142 0 0 1-.301.082c-.322.113-.657.17-1 .17a3.01 3.01 0 0 1-2.126-.871l-.068-.069a1.135 1.135 0 0 0-.809-.335c-.305 0-.592.119-.808.335a1.135 1.135 0 0 0-.336.809c0 .305.12.592.335.808l.07.069.008.009a3.012 3.012 0 0 1 .62 3.304 3.01 3.01 0 0 1-2.784 1.948h-.102c-.63 0-1.142.512-1.142 1.141 0 .63.512 1.142 1.142 1.142h.198a3.025 3.025 0 0 1 2.767 1.83 3.012 3.012 0 0 1-.616 3.34l-.069.069a1.135 1.135 0 0 0-.335.808c0 .305.119.592.335.808.216.217.503.336.808.336.306 0 .593-.12.808-.335l.07-.07.008-.008a3.01 3.01 0 0 1 2.117-.863c.41 0 .81.082 1.188.243Z" fill="#39331b" fill-rule="evenodd" data-name="Path 3028"/></g></svg>