<svg xmlns="http://www.w3.org/2000/svg" width="60.132" height="60.131" viewBox="684.868 63.934 60.132 60.131"><g data-name="Group 233" transform="rotate(180 372.5 62.033)" clip-path="url(&quot;#a&quot;)"><path d="M51.325 8.806C45.647 3.127 38.097 0 30.065 0c-8.03 0-15.58 3.127-21.259 8.806C3.127 14.485 0 22.035 0 30.066c0 8.03 3.127 15.58 8.806 21.26 5.679 5.678 13.229 8.805 21.26 8.805 8.03 0 15.58-3.127 21.26-8.806 5.678-5.678 8.806-13.228 8.806-21.26 0-8.03-3.128-15.58-8.807-21.259M30.065 57.14c-14.928 0-27.073-12.146-27.073-27.074 0-14.929 12.145-27.074 27.074-27.074 14.928 0 27.074 12.145 27.074 27.074 0 14.928-12.146 27.074-27.074 27.074" fill="#f2cb5c" fill-rule="evenodd" data-name="Path 3036"/><path d="M23.51 13.847a1.496 1.496 0 1 0-2.116 2.116l14.17 14.17L21.53 44.17a1.496 1.496 0 0 0 2.115 2.115l15.094-15.093a1.496 1.496 0 0 0 0-2.116L23.509 13.847Z" fill="#f2cb5c" fill-rule="evenodd" data-name="Path 3037"/></g><defs><clipPath id="a"><path d="M0 0h60.131v60.131H0V0z" data-name="Rectangle 836"/></clipPath></defs></svg>