<svg xmlns="http://www.w3.org/2000/svg" width="24.618" height="18.386" viewBox="109.464 274 24.618 18.386"><g data-name="Logout Icon"><path d="M123.378 286.551a.826.826 0 0 0-.826.826v3.358h-11.437V275.65h11.437v3.358a.825.825 0 0 0 1.652 0v-3.576c0-.79-.67-1.433-1.493-1.433h-11.754c-.823 0-1.493.643-1.493 1.433v15.52c0 .79.67 1.433 1.493 1.433h11.754c.823 0 1.493-.643 1.493-1.433v-3.576a.826.826 0 0 0-.826-.826Z" fill="#39331b" fill-rule="evenodd" data-name="Path 3016"/><path d="m133.84 282.627-4.903-4.903a.826.826 0 0 0-1.167 1.167l3.476 3.476h-14.412a.826.826 0 0 0 0 1.652h14.448l-3.476 3.476a.825.825 0 1 0 1.167 1.167l4.868-4.867a.825.825 0 0 0 0-1.168Z" fill="#39331b" fill-rule="evenodd" data-name="Path 3017"/></g></svg>