<svg xmlns="http://www.w3.org/2000/svg" width="19.712" height="13.229" viewBox="948 493.712 19.712 13.229"><g data-name="Group 217"><path d="m957.678 496.774-.966 3.184a.186.186 0 0 1-.216.127l-5.403-1.146a.186.186 0 0 0-.225.182v5.256c0 .079.05.15.125.175l6.801 2.38c.04.013.083.013.123 0l6.802-2.38a.185.185 0 0 0 .124-.175v-5.256a.185.185 0 0 0-.224-.182l-5.405 1.146a.186.186 0 0 1-.217-.127l-.964-3.184a.186.186 0 0 0-.355 0Z" fill="#39331b" fill-rule="evenodd" data-name="Path 3031"/><path d="M948.055 497.268a.185.185 0 0 0 .092.312l2.721.577 5.133 1.091a.186.186 0 0 0 .216-.128l1.029-3.397.234-.772.303-1a.186.186 0 0 0-.178-.239h-5.918c-.05 0-.097.02-.132.054l-3.5 3.502Z" fill="#39331b" fill-rule="evenodd" data-name="Path 3032"/><path d="M964.025 493.712h-5.919a.186.186 0 0 0-.178.24l.303.996v.003l.234.772 1.03 3.397a.186.186 0 0 0 .216.128l5.132-1.09 2.721-.578a.186.186 0 0 0 .093-.312l-3.5-3.502a.186.186 0 0 0-.132-.054Z" fill="#39331b" fill-rule="evenodd" data-name="Path 3033"/></g></svg>