<svg xmlns="http://www.w3.org/2000/svg" width="16.744" height="18.744" viewBox="1172 491 16.744 18.744"><path d="m1183.65 496.06-6.505-2.565c-.462-.182-1.041.153-1.114.644l-1.032 6.915c-.02.14.004.277.071.393l4.457 7.719c.184.319.635.404 1.008.189l7.535-4.351c.373-.215.525-.648.34-.967l-4.456-7.719a.603.603 0 0 0-.304-.258Zm-4.63 1.969c-.515.297-1.138.18-1.393-.26-.254-.442-.044-1.04.47-1.337.515-.297 1.138-.18 1.393.26.254.442.044 1.04-.47 1.337Z" fill="#39331b" fill-rule="evenodd" data-name="Path 3034"/></svg>