<svg xmlns="http://www.w3.org/2000/svg" width="31.441" height="28.872" viewBox="241.538 152.166 31.441 28.872"><path d="m258.702 180.7-8.796-7.033h-6.83a1.538 1.538 0 0 1-1.538-1.537v-11.058c0-.847.69-1.535 1.537-1.535h6.831l8.796-7.036a1.542 1.542 0 0 1 1.624-.184c.532.256.87.794.87 1.385v25.8a1.535 1.535 0 0 1-2.494 1.199Zm-14.09-10.105h5.834c.348 0 .687.12.96.336l6.72 5.376v-19.41l-6.72 5.375a1.541 1.541 0 0 1-.96.337h-5.835v7.986Zm25.496 6.636v-20.402a1.436 1.436 0 1 1 2.871 0v20.402a1.435 1.435 0 1 1-2.87 0Zm-6.143-5.53v-11.424a1.437 1.437 0 1 1 2.872 0V171.7a1.435 1.435 0 1 1-2.872 0Z" fill="#39331b" fill-rule="evenodd" data-name="Union 3"/></svg>