<svg xmlns="http://www.w3.org/2000/svg" width="8.836" height="8.838" viewBox="0 0.913 8.836 8.838"><g data-name="Icon ionic-ios-timer"><path d="M4.419 9.75A4.423 4.423 0 0 1 0 5.333c0-1.21.48-2.34 1.352-3.181a.353.353 0 0 1 .502.008.353.353 0 0 1-.01.502A3.683 3.683 0 0 0 .712 5.332 3.712 3.712 0 0 0 4.42 9.04a3.712 3.712 0 0 0 3.707-3.708A3.714 3.714 0 0 0 4.772 1.64v1.383a.355.355 0 1 1-.711 0V1.27c0-.197.159-.356.356-.356a4.423 4.423 0 0 1 4.419 4.42A4.421 4.421 0 0 1 4.419 9.75Z" fill="#ddb438" fill-rule="evenodd" data-name="Path 3025"/><path d="m2.65 3.253 2.197 1.58a.665.665 0 1 1-.927.928L2.34 3.562a.222.222 0 0 1 .31-.309Z" fill="#ddb438" fill-rule="evenodd" data-name="Path 3026"/></g></svg>