<svg xmlns="http://www.w3.org/2000/svg" width="25.786" height="15.768" viewBox="495 493.063 25.786 15.768"><g data-name="Group 216"><path d="M504.284 499.546a3.865 3.865 67.5 1 1 .039.092z" fill="#39331b" fill-rule="evenodd" data-name="Ellipse 9"/><path d="M515.199 502.38a2.564 2.564-67.5 1 1 .092.039z" fill="#39331b" fill-rule="evenodd" data-name="Ellipse 10"/><path d="M512.86 504.175a6.822 6.822 0 0 0-2.345-1.627.982.982 0 0 0-.757 0 4.692 4.692 0 0 1-1.865.38 4.692 4.692 0 0 1-1.866-.38.982.982 0 0 0-.756 0 6.84 6.84 0 0 0-2.342 1.627 6.745 6.745 0 0 0-1.627 2.957c-.12.46-.193.943-.211 1.437a.254.254 0 0 0 .256.262h13.092a.254.254 0 0 0 .256-.262 6.83 6.83 0 0 0-.208-1.437 6.805 6.805 0 0 0-1.628-2.957Z" fill="#39331b" fill-rule="evenodd" data-name="Path 3027"/><path d="M518.013 502.964a.648.648 0 0 0-.503-.004c-.38.166-.799.254-1.239.254-.437 0-.856-.088-1.239-.254a.64.64 0 0 0-.5.004 4.456 4.456 0 0 0-1.019.593 7.706 7.706 0 0 1 1.902 3.574h5.202a.17.17 0 0 0 .169-.174 4.505 4.505 0 0 0-2.773-3.993Z" fill="#39331b" fill-rule="evenodd" data-name="Path 3028"/><path d="M498.44 502.38a2.564 2.564-67.5 1 1 .093.039z" fill="#39331b" fill-rule="evenodd" data-name="Ellipse 11"/><path d="M501.254 502.964a.64.64 0 0 0-.5-.004 3.096 3.096 0 0 1-1.24.254c-.44 0-.858-.088-1.238-.254a.648.648 0 0 0-.503.004 4.519 4.519 0 0 0-2.773 3.993.17.17 0 0 0 .172.174h5.199a7.706 7.706 0 0 1 1.901-3.574 4.348 4.348 0 0 0-1.018-.593Z" fill="#39331b" fill-rule="evenodd" data-name="Path 3029"/></g></svg>