<svg xmlns="http://www.w3.org/2000/svg" width="33.513" height="33.513" viewBox="1214.901 149 33.513 33.513"><path d="M1246.02 149h-28.733c-1.316 0-2.386 1.085-2.386 2.416v28.68c0 1.332 1.07 2.417 2.386 2.417h28.733c1.317 0 2.394-1.085 2.394-2.416v-28.68c0-1.332-1.077-2.417-2.394-2.417Zm-20.99 28.726h-4.967v-15.994h4.974v15.994Zm-2.484-18.178a2.881 2.881 0 0 1 0-5.76 2.886 2.886 0 0 1 2.88 2.88 2.876 2.876 0 0 1-2.88 2.88Zm21.103 18.178h-4.967v-7.78c0-1.855-.037-4.242-2.58-4.242-2.59 0-2.986 2.02-2.986 4.107v7.915h-4.967v-15.994h4.765v2.184h.068c.665-1.256 2.289-2.58 4.705-2.58 5.027 0 5.962 3.313 5.962 7.622v8.768Z" fill="#ddb438" fill-rule="evenodd" data-name="Icon awesome-linkedin"/></svg>