<svg xmlns="http://www.w3.org/2000/svg" width="33.694" height="33.694" viewBox="1155 149 33.694 33.694"><path d="M1186.834 149h-29.974c-1.026 0-1.86.834-1.86 1.86v29.974c0 1.027.834 1.86 1.86 1.86h14.987v-13.337h-4.027v-4.914h4.027v-3.632c0-4.353 3.019-6.722 6.906-6.722 1.86 0 3.86.14 4.326.202v4.545h-3.098c-2.115 0-2.518 1-2.518 2.475v3.132h5.036l-.658 4.914h-4.378v13.337h9.371c1.027 0 1.86-.833 1.86-1.86V150.86c0-1.026-.833-1.86-1.86-1.86Z" fill="#ddb438" fill-rule="evenodd" data-name="Icon ionic-logo-facebook"/></svg>