<svg xmlns="http://www.w3.org/2000/svg" width="32" height="34" viewBox="1274 149 32 34"><path d="M1304 183h-28c-1.102 0-2-.897-2-2v-30c0-1.103.898-2 2-2h28c1.103 0 2 .897 2 2v30c0 1.103-.897 2-2 2Zm-14-29.082c-1.996 0-3.767.032-4.623.083-2.093.106-3.541.697-4.694 1.918-1.147 1.213-1.706 2.751-1.811 4.989-.105 1.974-.105 7.849 0 9.823.1 2.23.658 3.769 1.81 4.988 1.152 1.218 2.6 1.811 4.695 1.923.856.051 2.627.083 4.622.083 1.996 0 3.768-.032 4.624-.083 2.098-.106 3.546-.699 4.694-1.923 1.146-1.218 1.705-2.756 1.81-4.988.106-1.973.106-7.846 0-9.819-.099-2.23-.657-3.768-1.81-4.987-1.146-1.219-2.594-1.812-4.694-1.924-.856-.051-2.628-.083-4.623-.083Zm1.981 21.677c-.42 0-.825-.004-1.182-.008a79.07 79.07 0 0 0-.797-.006c-.229 0-.498.002-.783.005-.35.004-.747.008-1.158.008-1.5 0-3.614-.051-4.664-.491-.979-.415-1.735-1.218-2.13-2.264-.501-1.344-.474-4.248-.455-6.169.003-.31.006-.602.006-.848 0-.243-.003-.53-.006-.833-.017-1.928-.044-4.842.456-6.185.389-1.04 1.145-1.844 2.129-2.264 1.048-.44 3.142-.492 4.626-.492.42 0 .825.004 1.182.008.291.003.566.006.797.006.226 0 .494-.002.777-.005.352-.004.746-.008 1.156-.008 1.503 0 3.621.051 4.672.491.98.415 1.736 1.219 2.13 2.264.502 1.344.474 4.248.456 6.17-.003.31-.006.602-.006.848s.003.538.006.847c.018 1.924.046 4.83-.456 6.17-.39 1.041-1.146 1.845-2.13 2.264-1.048.44-3.142.492-4.626.492Zm-1.979-15.878c-3.168 0-5.745 2.739-5.745 6.105 0 3.366 2.577 6.104 5.745 6.104s5.746-2.738 5.746-6.104-2.578-6.105-5.746-6.105Zm5.98-1.673c-.738 0-1.34.639-1.34 1.424 0 .785.602 1.424 1.34 1.424.74 0 1.34-.639 1.34-1.424 0-.785-.6-1.424-1.34-1.424Zm-5.98 11.746c-2.06 0-3.735-1.78-3.735-3.968 0-2.189 1.676-3.97 3.735-3.97 2.06 0 3.735 1.781 3.735 3.97 0 2.188-1.676 3.968-3.735 3.968Z" fill="#ddb438" fill-rule="evenodd" data-name="Subtraction 1"/></svg>